<svg width="8" height="13" viewBox="0 0 8 13" fill="none" xmlns="http://www.w3.org/2000/svg">
<path d="M6.25368 12.9167C6.11051 12.9171 5.96905 12.8869 5.8397 12.8282C5.71034 12.7695 5.59638 12.6839 5.50618 12.5775L0.877433 7.0775C0.73648 6.91348 0.659424 6.70774 0.659424 6.49542C0.659424 6.28309 0.73648 6.07735 0.877433 5.91333L5.6691 0.413332C5.83176 0.226133 6.06551 0.108411 6.31892 0.0860627C6.57233 0.0637146 6.82464 0.138571 7.02035 0.294165C7.21606 0.449759 7.33913 0.673344 7.36249 0.915735C7.38586 1.15813 7.3076 1.39947 7.14493 1.58667L2.86118 6.5L7.00118 11.4133C7.11837 11.5479 7.19281 11.7117 7.21569 11.8855C7.23858 12.0592 7.20895 12.2356 7.13031 12.3938C7.05168 12.5519 6.92732 12.6852 6.77197 12.7779C6.61661 12.8706 6.43676 12.9187 6.25368 12.9167Z" fill="#244E67"/>
</svg>
