<svg width="22" height="22" viewBox="0 0 22 22" fill="none" xmlns="http://www.w3.org/2000/svg">
<g clip-path="url(#clip0_91_63)">
<path d="M11 1.375C13.4389 1.37439 15.8088 2.18432 17.7372 3.67746C19.6656 5.17061 21.0431 7.26229 21.6531 9.62366C22.2631 11.985 22.0711 14.4822 21.1072 16.7225C20.1432 18.9628 18.4621 20.8193 16.3281 22H5.67185C3.53782 20.8193 1.85669 18.9628 0.892779 16.7225C-0.0711366 14.4822 -0.26318 11.985 0.34684 9.62366C0.956861 7.26229 2.33435 5.17061 4.26275 3.67746C6.19114 2.18432 8.56108 1.37439 11 1.375V1.375ZM17.2287 18.6037C18.0492 17.7877 18.6996 16.8169 19.1424 15.7478C19.5852 14.6786 19.8115 13.5322 19.8082 12.375H17.875V11H19.7023C19.553 10.0388 19.2439 9.10929 18.788 8.25H16.5V6.875H17.8805C16.8137 5.53411 15.3771 4.53545 13.7486 4.00263V5.5H12.3736V3.67263C11.4624 3.53089 10.5348 3.53089 9.6236 3.67263V5.5H8.2486V4.00263C6.6205 4.53632 5.18417 5.53482 4.11672 6.875H5.49722V8.25H3.20922C2.75327 9.10929 2.44422 10.0388 2.29485 11H4.12222V12.375H2.18897C2.18897 14.7276 3.10472 16.94 4.76847 18.6037C4.9981 18.8334 5.2401 19.0493 5.48897 19.25H9.62222L10.4073 8.25H11.5857L12.3708 19.25H16.5041C16.7543 19.0493 16.995 18.8334 17.2246 18.6037H17.2287Z" fill="#46B444"/>
</g>
<defs>
<clipPath id="clip0_91_63">
<rect width="22" height="22" fill="white"/>
</clipPath>
</defs>
</svg>
