<svg width="40" height="40" viewBox="0 0 40 40" fill="none" xmlns="http://www.w3.org/2000/svg">
<path d="M19.7236 16.3401C21.5994 16.3401 22.983 14.9581 22.983 13.0807C22.983 11.2032 21.5994 9.82123 19.7236 9.82123C17.8494 9.82123 16.4641 11.2032 16.4641 13.0807C16.4641 14.9581 17.8494 16.3401 19.7236 16.3401ZM19.7236 17.9698C16.1235 17.9698 13.2047 20.5969 13.2047 23.8367V24.4658H26.2424V23.8367C26.2424 20.5969 23.3236 17.9698 19.7236 17.9698Z" fill="white"/>
<path d="M31.1316 3.30237H8.31564C6.51806 3.30237 5.05621 4.76422 5.05621 6.56179V27.748C5.05621 29.5456 6.51806 31.0075 8.31564 31.0075H14.8345L19.7236 35.8966L24.6128 31.0075H31.1316C32.9292 31.0075 34.391 29.5456 34.391 27.748V6.56179C34.391 4.76422 32.9292 3.30237 31.1316 3.30237ZM22.983 27.748L19.7236 31.0075L16.4642 27.748H8.31564V6.56179H31.1316L31.1349 27.748H22.983Z" fill="white"/>
</svg>
