<svg width="512" height="512" viewBox="0 0 512 512" fill="none" xmlns="http://www.w3.org/2000/svg">
<path d="M496 144.768V111.232H456.768V42C456.707 35.3787 454.021 29.0522 449.301 24.4088C444.58 19.7654 438.21 17.1843 431.589 17.232H80.4109C73.7896 17.1843 67.4197 19.7654 62.6993 24.4088C57.9788 29.0522 55.2932 35.3787 55.2319 42V472C55.2932 478.621 57.9788 484.948 62.6993 489.591C67.4197 494.235 73.7896 496.816 80.4109 496.768H431.589C438.21 496.816 444.58 494.235 449.301 489.591C454.021 484.948 456.707 478.621 456.768 472V400.768H496V367.232H456.768V272.768H496V239.232H456.768V144.768H496ZM423.232 239.232H376V272.768H423.232V367.232H376V400.768H423.232V463.232H88.7679V50.768H423.232V111.232H376V144.768H423.232V239.232Z" fill="#46B444"/>
<path d="M313.639 306.925L284.894 288.24L298.714 254.585V201.714C298.714 184.286 291.791 167.571 279.467 155.247C267.143 142.923 250.428 136 233 136C215.572 136 198.857 142.923 186.533 155.247C174.209 167.571 167.286 184.286 167.286 201.714V254.271L180.007 288.955L152.361 306.925C145.486 311.375 139.836 317.479 135.93 324.677C132.023 331.876 129.984 339.939 130 348.129V400H336V348.129C336.016 339.939 333.977 331.876 330.07 324.677C326.164 317.479 320.514 311.375 313.639 306.925V306.925ZM304 368H162V348.129C161.995 345.272 162.706 342.46 164.069 339.949C165.431 337.438 167.402 335.309 169.8 333.756L218.833 301.884L199.286 248.584V201.714C199.286 192.772 202.838 184.197 209.161 177.875C215.483 171.552 224.058 168 233 168C241.941 168 250.517 171.552 256.839 177.875C263.162 184.197 266.714 192.772 266.714 201.714V248.271L245.214 300.618L296.2 333.756C298.598 335.309 300.569 337.438 301.931 339.949C303.294 342.46 304.005 345.272 304 348.129V368Z" fill="#46B444"/>
</svg>
