<svg width="40" height="40" viewBox="0 0 40 40" fill="none" xmlns="http://www.w3.org/2000/svg">
<g clip-path="url(#clip0_2_262)">
<path d="M19.7123 20.2506H31.1203M8.30437 20.2506C7.00769 20.2506 5.76412 19.7355 4.84723 18.8186C3.93034 17.9017 3.41523 16.6581 3.41523 15.3614C3.41523 14.0647 3.93034 12.8212 4.84723 11.9043C5.76412 10.9874 7.00769 10.4723 8.30437 10.4723C9.60105 10.4723 10.8446 10.9874 11.7615 11.9043C12.6784 12.8212 13.1935 14.0647 13.1935 15.3614C13.1935 16.6581 12.6784 17.9017 11.7615 18.8186C10.8446 19.7355 9.60105 20.2506 8.30437 20.2506ZM14.8232 30.0288V26.7694C14.8232 23.1026 11.9109 20.2506 8.2457 20.2506H8.3337C4.66685 20.2506 1.78552 23.1026 1.78552 26.7694V30.0288H14.8232ZM19.7123 12.102H39.2689H19.7123ZM19.7123 28.3991H36.0095H19.7123Z" stroke="white" stroke-width="2"/>
</g>
<defs>
<clipPath id="clip0_2_262">
<rect width="39.1131" height="39.1131" fill="white" transform="translate(0.155823 0.694031)"/>
</clipPath>
</defs>
</svg>
