<svg width="21" height="21" viewBox="0 0 21 21" fill="none" xmlns="http://www.w3.org/2000/svg">
<path d="M6.5 10.5L9.5 13.5L14.5 8.5" stroke="white" stroke-width="2" stroke-linecap="round" stroke-linejoin="round"/>
<path d="M1.5 10.5C1.5 9.3181 1.73279 8.14778 2.18508 7.05585C2.63738 5.96392 3.30031 4.97177 4.13604 4.13604C4.97177 3.30031 5.96392 2.63738 7.05585 2.18508C8.14778 1.73279 9.3181 1.5 10.5 1.5C11.6819 1.5 12.8522 1.73279 13.9442 2.18508C15.0361 2.63738 16.0282 3.30031 16.864 4.13604C17.6997 4.97177 18.3626 5.96392 18.8149 7.05585C19.2672 8.14778 19.5 9.3181 19.5 10.5C19.5 12.8869 18.5518 15.1761 16.864 16.864C15.1761 18.5518 12.8869 19.5 10.5 19.5C8.11305 19.5 5.82387 18.5518 4.13604 16.864C2.44821 15.1761 1.5 12.8869 1.5 10.5V10.5Z" stroke="white" stroke-width="2" stroke-linecap="round"/>
</svg>
