<?xml version="1.0" encoding="utf-8"?>
<!-- Generator: Adobe Illustrator 23.0.3, SVG Export Plug-In . SVG Version: 6.00 Build 0)  -->
<svg version="1.1" id="Layer_1" xmlns="http://www.w3.org/2000/svg" xmlns:xlink="http://www.w3.org/1999/xlink" x="0px" y="0px"
	 viewBox="0 0 731.1 928.4" style="enable-background:new 0 0 731.1 928.4;" xml:space="preserve">
<style type="text/css">
	.st0{fill:#244D68;}
	.st1{fill:#46B345;}
	.st2{fill:#46B347;}
</style>
<g>
	<path class="st0" d="M329,209.1c0,17.8,0,35.7,0,53.5c0,6.7-0.3,7.4-6.9,7.4c-24.6,0-46-7.3-60.7-28.4c-2.2-3.1-3.6-3.6-7.1-1.6
		c-18.2,10.1-34.9,22-50,36.3c-2.7,2.6-3.1,4.4-0.8,7.5c22.5,30.6,45,61.2,67.4,91.9c8.7,12,17,24.3,26.5,35.7
		c14.8,17.7,32.3,31.4,55.7,35.6c25.8,4.6,47.9-3.5,67.6-19.8c14.2-11.8,24-27.1,34.8-41.7c21.7-29.4,43.1-58.9,64.6-88.3
		c3.9-5.4,7.7-10.9,11.8-16.1c1.7-2.2,1.7-3.6-0.3-5.5c-15.3-14-31.9-26.1-50.2-36c-2.8-1.5-4.3-1-6.1,1.6
		c-15.1,22.2-37.3,29.3-62.8,29.1c-3.7,0-5.5-1.6-5.3-5.5c0.1-5.2-0.1-10.3,0.1-15.5c0.1-4-1.3-5.8-5.5-5.7
		c-9.2,0.2-18.3-0.1-27.5,0.3c-4.1,0.2-5.4-1.2-5.3-5c0.3-16.4-1.9-13.5,13.2-13.8c6.7-0.1,13.3-0.2,20,0c3.6,0.1,5.1-1.2,5.1-4.9
		c-0.1-7.7-0.1-15.3,0.1-23c0.1-2.8-1.1-3.2-3.6-3.2c-9.7,0.2-19.3,0.1-29,0.3c-4.3,0.1-5.9-1.6-5.8-5.9
		c0.3-15.8-1.8-13.1,13.2-13.3c6.3-0.1,12.7-0.3,19,0.1c5,0.3,6.4-1.7,6.2-6.4c-0.3-5.1,0-10.3-0.1-15.5c0-3.3,1.4-4.9,4.8-4.9
		c24.1,0.2,45.9,5.9,61.3,26.4c3.9,5.2,6.9,11,8.9,17.2c1.1,3.5,3.1,5.7,6.3,7.2c28.1,13.4,53.4,30.9,75.4,52.7
		c25.4,25.1,45.2,54.1,59.5,86.9c9.1,21.1,15.6,42.8,19.2,65.5c6.5,40.9,3.7,81.3-7.2,121.2c-13.3,48.9-38.9,90.3-75.3,125.2
		c-44.9,43.1-98.6,67.6-160.5,74.9c-42,5-82.8-0.1-122.7-13.3c-34.7-11.5-65.6-30-93-54.3c-26.5-23.7-48.3-51-64.3-82.8
		c-14.1-28.1-23-57.8-26.9-89c-1.8-14.2-3.4-28.4-2.9-42.8c2.1-64.9,23.3-122.6,65-172.5c24.7-29.6,54.6-52.7,89.1-69.8
		c5.5-2.7,9.1-6.1,11.5-12.1c9.8-25,29.7-36.5,55.3-39.8c4-0.5,8-0.5,11.9-0.9c4.8-0.4,6.4,1.6,6.4,6.4
		C328.9,172.8,329,190.9,329,209.1C329,209.1,329,209.1,329,209.1z M370.1,688.3c3.8-0.3,8.9-0.6,14.1-1c41.2-3,79.4-14.8,114-37.5
		c36.2-23.7,64.4-54.8,83.5-93.6c20.5-41.5,28-85.4,23.4-131.5c-3.6-37.2-15.5-71.4-35.5-102.9c-3.3-5.2-3.3-5.1-6.4,0.4
		c-17.7,31.5-34.9,63.4-53.4,94.4c-18.2,30.5-33.1,62.4-44.6,95.9c-15.4,44.6-21.8,90.9-25.9,137.6c-0.4,4-1.6,6.2-5.7,7.4
		c-44.2,13.5-88.2,13.4-132.3-0.4c-3.7-1.2-5-3.3-5.3-6.8c-1-14.4-3.1-28.8-4.9-43.2c-6.2-51.1-20.9-99.7-42.5-146.2
		c-14.4-31.2-33-60.2-49.9-90c-9.1-16.1-18.4-32.1-27.4-48.2c-1.7-3-2.6-4.2-5-0.4c-5.2,8.4-10.1,16.9-14.2,25.8
		c-17.9,39.1-25.2,80.1-21.1,123c5.6,58.5,28.8,108.5,71,149.7C248.4,666.1,304.7,686.5,370.1,688.3z"/>
	<path class="st1" d="M637,777.4c0-22.7,0-45.3,0-68c0-7.3,0.1-7.4,7.1-7.4c5.5,0,11,0.2,16.5-0.1c4.8-0.3,6.7,1.5,6.4,6.3
		c-0.3,4,0,8,0,12c0,39.7,0,79.3,0,119c0,6.6,1.6,12.2,8,15.4c7,3.6,14.1,3.7,20.9-0.5c4.3-2.6,6.5-6.6,6.9-11.5
		c0.2-2.2,0.1-4.3,0.1-6.5c0-42.3,0-84.7,0-127c0-6.9,0.2-7.1,6.9-7.1c5,0,10,0.2,15-0.1c4.9-0.3,6.3,1.8,6.3,6.4
		c-0.2,15-0.1,30-0.1,45c0,29.3,0,58.7,0,88c0,6.5-0.7,13-3.1,19.1c-5.3,13.6-15.6,21.6-29.5,24.3c-18.3,3.6-35.6,1.6-49.8-12.1
		c-7.8-7.5-11.6-17-11.6-27.8C637,822.4,637,799.9,637,777.4C637,777.4,637,777.4,637,777.4z"/>
	<path class="st1" d="M369.1,307.9c29.3-0.8,56.8,24.2,56.7,57.1c-0.1,32.4-26.3,58.5-59.5,57.4c-32.5-1-55.6-26.2-55.8-56.9
		C310.2,332.3,337,306.6,369.1,307.9z"/>
	<path class="st1" d="M117,858.9c0-19.7,0-39.3,0-59c0-7.1-1-14-4.6-20.2c-2-3.6-0.4-4.4,2.8-4.4c6.7,0,13.3,0.1,20-0.1
		c3.6-0.1,5.6,1.3,6.3,4.9c0.8,4.2,2.6,4.7,6.1,2c19.3-14.7,42.7-12.7,60.2,4.1c19.9,19.1,21,51.7,9.9,73.8
		c-13.3,26.2-42.5,29.5-64.3,22.3c-6.2-2.1-6.3-2.1-6.4,4.5c0,11.3,0,22.7,0,34c0,7.6,0,7.6-7.4,7.7c-4.7,0-9.3,0-14,0
		c-8.7,0-8.7,0-8.7-8.5C117,899.5,117,879.2,117,858.9C117,858.9,117,858.9,117,858.9z M197.1,828c0.9-15.6-11.9-27.4-25.2-27.2
		c-12.1,0.2-21.5,9.6-24.3,23.3c-2.3,11.3,3.9,24.5,13.8,29C179.2,861,198.4,847.2,197.1,828z"/>
	<path class="st1" d="M54.2,886.3c-2.3-7.1-4.7-14.1-6.9-21.3C31.7,812.5,16.2,760,0.5,707.5c-1.4-4.5-0.1-5.6,4.2-5.5
		c6.3,0.2,12.7,0.3,19-0.1c4.1-0.3,5.5,1.5,6.4,5.1c4.8,18.5,9.7,37.1,14.5,55.6c1.9,7.1,3.8,14.2,5.8,21.2c0.5,1.6,0.3,4.3,2.6,4.2
		c2,0,1.8-2.5,2.2-4.1c6.6-25.3,13.3-50.6,19.7-76c1.2-4.6,3.1-6.4,7.9-6.1c5.6,0.4,11.3,0.3,17-0.1c4-0.3,5,0.6,3.9,4.6
		c-6.8,25.2-13.4,50.5-20.1,75.8c-8.6,32.5-17.1,65.1-25.7,97.6c-0.6,2.2-1.4,4.3-2.2,6.4C55.2,886.3,54.7,886.3,54.2,886.3z"/>
	<path class="st1" d="M356.7,775.2c18.5,0.2,14.7-2.1,21,13.8c2.2,5.6,4.6,11.1,6.8,16.6c1.5,3.7,3.2,4,5.2,0.3
		c4.9-8.7,9.9-17.4,14.7-26.1c2-3.6,3.5-3.3,5.3,0c5,9,10.1,18,15.1,27c0.8,1.4,1.1,3.6,3.1,3.5c2.2-0.1,2.5-2.4,3.2-4
		c3.7-8.7,7.5-17.4,11-26.2c1.5-3.7,3.8-5,7.7-4.9c6,0.2,12,0,18,0.1c5.2,0.1,5.8,1,3.9,5.6c-11.7,28.1-23.5,56.3-35.2,84.4
		c-2,4.8-4.1,9.5-6.1,14.2c-0.4,1-0.5,2.6-1.9,2.8c-1.7,0.2-2.2-1.4-2.7-2.5c-5.4-10.7-10.6-21.5-16-32.2c-0.7-1.4-0.9-3.7-2.7-3.8
		c-2-0.1-2.1,2.3-2.8,3.7c-5.2,10.6-10.4,21.3-15.6,31.9c-0.6,1.1-0.7,3-2.3,3c-1.7,0-2.1-2-2.7-3.3c-8.4-19.9-16.8-39.9-25.2-59.8
		c-5.3-12.6-10.8-25.1-16.1-37.7c-2.3-5.3-1.7-6,4-6.1c0.3,0,0.7,0,1,0C350.7,775.2,353.7,775.2,356.7,775.2z"/>
	<path class="st1" d="M226.9,823.6c0.6-17.9,11.3-36.2,33-46.5c16.2-7.7,37.9-5.3,53.8,8.2c27.8,23.8,25.2,64.8,1.2,87.5
		c-18.6,17.7-50.6,17.7-69.1-0.1C232.2,859.4,226.9,847.6,226.9,823.6z M255,830.5c-0.1,16.8,10.4,27.6,26.7,27.6
		c14.1,0,25.1-12.3,25.2-28c0.1-15.6-11.1-26.4-26.5-27.1C267.4,802.4,253.7,815.8,255,830.5z"/>
	<path class="st1" d="M479.8,829.4c0.6-23,10-41.2,31.3-51c17.8-8.2,35.1-4.9,50.8,6.9c5.1,3.8,9.3,8.5,12.1,14.4
		c1.5,3.1,1,5.1-1.6,7.3c-15.2,12.9-30.3,25.9-45.4,39c-1.7,1.5-4.8,2.9-3.6,5.9c1.1,2.8,4.3,2.8,6.9,3.1c10,1.2,19.1-1.7,27.7-6.5
		c1.4-0.8,2.8-2.5,4.5-1.4c1.5,1,0.9,3.1,0.7,4.7c-0.6,6.8-1.4,13.6-2.1,20.4c-0.2,2.4-1.3,4-3.3,5.2c-20.5,12.6-51.2,9.3-66.6-12.4
		C483.4,854.2,479.6,842.6,479.8,829.4z M505.1,823.2c0,0.7-0.1,1.3,0,2c0.2,1.8-0.5,4,1.4,5c2.2,1.1,3.6-0.9,5-2.3
		c7.6-7.2,15.2-14.3,22.7-21.6c3.3-3.2,2.9-4.9-1.3-7c-6.7-3.3-16.6-1.1-21.2,4.9C507.5,809.9,505.1,816.1,505.1,823.2z"/>
	<path class="st2" d="M193.4,0c9.5,3,17.4,8.5,25.6,13.3c26.5,15.3,52.8,30.9,79.2,46.5c1.4,0.8,3.6,1.3,3.5,3.1
		c0,1.8-2.2,2.3-3.6,3c-3.3,1.6-6.6,3.1-9.9,4.7c-2.8,1.4-3.8,3.2-1.2,5.8c9.5,9.5,19.1,18.9,28.6,28.4c9.6,9.6,19.1,19.3,28.7,29.1
		c-1.5,1.2-2.3,0.3-3.1-0.2c-33.8-19.7-67.5-39.4-101.3-59.2c-1.5-0.9-4-1.3-3.9-3.4c0.2-2.2,2.8-2.5,4.5-3.4
		c2.8-1.5,5.7-2.8,8.5-4.1c3.7-1.6,4.4-3.5,1.2-6.6c-12.6-12.4-25.1-24.8-37.5-37.3C206.3,13.2,199.9,6.6,193.4,0z"/>
	<path class="st2" d="M545.8,0.3c-7.3,7.3-14.2,14.3-21.2,21.3c-11.5,11.6-23.1,23.1-34.5,34.7c-4,4.1-3.7,5.5,1.5,7.9
		c3.3,1.5,6.6,3.2,9.9,4.7c3.1,1.5,3.3,2.8,0.2,4.7c-9.8,5.7-19.4,11.6-29.2,17.3c-18.9,11.1-37.9,22.2-56.9,33.2
		c-6.5,3.8-13.2,7.4-20.1,10.7c2-4.2,5.4-7.1,8.5-10.1c15.5-15.6,31.1-31,46.7-46.5c0.9-0.9,1.7-2.1,2.7-2.9c2-1.8,1.6-2.9-0.7-4
		c-3.9-1.8-7.8-3.7-11.7-5.6c-1.2-0.6-2.8-0.8-3.1-2.3c-0.3-1.9,1.6-2.4,2.8-3.1c11.3-6.7,22.6-13.4,34-20
		c22-12.8,43.9-25.7,65.9-38.4C542,0.9,543.1-0.6,545.8,0.3z"/>
	<path class="st1" d="M583.1,828.7c0-15.6,0-31.3,0-46.9c0-5.9,0.6-6.5,6.6-6.5c4.8,0,10.3-1.4,14.3,0.3c7.2,3.1,13.4-0.5,20-0.6
		c4.3,0,6.1,1.7,6,5.9c-0.1,5.2-0.1,10.3,0,15.5c0.1,3.7-1.5,5.5-5.1,6.8c-10.3,3.5-15.3,8.1-14.9,19.8c0.7,17.8,0.1,35.6,0.2,53.4
		c0,4.5-1.4,6.4-6,6.1c-5.1-0.3-10.3-0.3-15.5,0c-4.4,0.2-5.8-1.6-5.8-5.9C583.1,860.6,583,844.6,583.1,828.7
		C583,828.7,583,828.7,583.1,828.7z"/>
</g>
</svg>
