<svg width="22" height="23" viewBox="0 0 22 23" fill="none" xmlns="http://www.w3.org/2000/svg">
<path d="M18.1112 7.97186H20.4315C20.7392 7.97186 21.0343 8.08413 21.2519 8.28397C21.4695 8.48381 21.5917 8.75486 21.5917 9.03748V21.825C21.5917 22.1076 21.4695 22.3786 21.2519 22.5785C21.0343 22.7783 20.7392 22.8906 20.4315 22.8906H1.86879C1.56109 22.8906 1.266 22.7783 1.04842 22.5785C0.83085 22.3786 0.708618 22.1076 0.708618 21.825V9.03748C0.708618 8.75486 0.83085 8.48381 1.04842 8.28397C1.266 8.08413 1.56109 7.97186 1.86879 7.97186H4.18913V6.90623C4.18913 5.2105 4.92252 3.58423 6.22797 2.38517C7.53341 1.18611 9.30397 0.512482 11.1502 0.512482C12.9963 0.512482 14.7669 1.18611 16.0723 2.38517C17.3778 3.58423 18.1112 5.2105 18.1112 6.90623V7.97186ZM15.7908 7.97186V6.90623C15.7908 5.77575 15.3019 4.69156 14.4316 3.89219C13.5613 3.09281 12.3809 2.64373 11.1502 2.64373C9.91937 2.64373 8.73899 3.09281 7.86869 3.89219C6.9984 4.69156 6.50947 5.77575 6.50947 6.90623V7.97186H15.7908ZM9.98998 14.3656V16.4969H12.3103V14.3656H9.98998ZM5.3493 14.3656V16.4969H7.66964V14.3656H5.3493ZM14.6307 14.3656V16.4969H16.951V14.3656H14.6307Z" fill="#46B444"/>
</svg>
