<svg width="21" height="21" viewBox="0 0 21 21" fill="none" xmlns="http://www.w3.org/2000/svg">
<path d="M19.7748 3.36813L17.1428 0.738555C16.9571 0.552071 16.7364 0.404109 16.4934 0.303168C16.2504 0.202227 15.9898 0.150297 15.7266 0.15036C15.1903 0.15036 14.6862 0.36043 14.3081 0.738555L11.4758 3.57078C11.2893 3.75645 11.1414 3.97714 11.0404 4.22016C10.9395 4.46318 10.8876 4.72375 10.8876 4.9869C10.8876 5.5232 11.0977 6.02736 11.4758 6.40549L13.5469 8.47652C13.0621 9.54506 12.3881 10.5171 11.5574 11.3458C10.7288 12.1785 9.75678 12.855 8.68808 13.3427L6.61704 11.2717C6.43137 11.0852 6.21069 10.9372 5.96767 10.8363C5.72465 10.7354 5.46407 10.6834 5.20092 10.6835C4.66463 10.6835 4.16046 10.8936 3.78234 11.2717L0.947632 14.1014C0.76092 14.2875 0.61283 14.5085 0.511885 14.752C0.410939 14.9955 0.35913 15.2565 0.359437 15.52C0.359437 16.0563 0.569507 16.5605 0.947632 16.9386L3.57474 19.5657C4.17776 20.1712 5.01062 20.5147 5.86573 20.5147C6.04614 20.5147 6.21914 20.4999 6.38967 20.4703C9.72113 19.9216 13.0254 18.1496 15.692 15.4854C18.3562 12.8237 20.1257 9.52193 20.6818 6.18059C20.8499 5.1599 20.5113 4.10955 19.7748 3.36813Z" fill="#46B444"/>
</svg>
