<svg width="22" height="23" viewBox="0 0 22 23" fill="none" xmlns="http://www.w3.org/2000/svg">
<path d="M19.4595 18.0311C20.5887 16.6725 21.3741 15.0619 21.7492 13.3356C22.1243 11.6093 22.0781 9.818 21.6145 8.11332C21.1509 6.40864 20.2835 4.8407 19.0858 3.54212C17.8881 2.24355 16.3952 1.25255 14.7334 0.652956C13.0717 0.0533656 11.29 -0.137177 9.53907 0.097448C7.78813 0.332073 6.11944 0.984962 4.67419 2.00088C3.22893 3.01681 2.04962 4.36588 1.23602 5.93397C0.422417 7.50206 -0.00154314 9.24304 4.22045e-06 11.0096C0.000597995 13.5778 0.905593 16.0636 2.55619 18.0311L2.54046 18.0444C2.5955 18.1105 2.6584 18.1671 2.71501 18.2324C2.78578 18.3134 2.86205 18.3896 2.93517 18.4682C3.15533 18.7073 3.38178 18.9369 3.61923 19.1523C3.69157 19.2184 3.76627 19.2797 3.83939 19.3426C4.091 19.5596 4.34968 19.7656 4.6178 19.9575C4.6524 19.981 4.68385 20.0117 4.71845 20.0361V20.0266C6.55999 21.3226 8.75684 22.0181 11.0087 22.0181C13.2605 22.0181 15.4573 21.3226 17.2989 20.0266V20.0361C17.3335 20.0117 17.3641 19.981 17.3995 19.9575C17.6668 19.7648 17.9263 19.5596 18.1779 19.3426C18.251 19.2797 18.3257 19.2176 18.3981 19.1523C18.6355 18.9361 18.862 18.7073 19.0821 18.4682C19.1553 18.3896 19.2307 18.3134 19.3023 18.2324C19.3581 18.1671 19.4218 18.1105 19.4768 18.0437L19.4595 18.0311ZM11.0079 4.71943C11.7077 4.71943 12.3917 4.92694 12.9736 5.31573C13.5555 5.70452 14.009 6.25712 14.2768 6.90364C14.5446 7.55017 14.6146 8.2616 14.4781 8.94795C14.3416 9.6343 14.0046 10.2648 13.5098 10.7596C13.0149 11.2544 12.3845 11.5914 11.6981 11.7279C11.0118 11.8644 10.3004 11.7944 9.65384 11.5266C9.00731 11.2588 8.45471 10.8053 8.06593 10.2234C7.67714 9.64155 7.46962 8.95747 7.46962 8.25767C7.46962 7.31927 7.8424 6.41931 8.50595 5.75576C9.1695 5.09221 10.0695 4.71943 11.0079 4.71943ZM4.72316 18.0311C4.7368 16.9987 5.15636 16.0131 5.89106 15.2877C6.62577 14.5623 7.61654 14.1553 8.64904 14.1547H13.3667C14.3992 14.1553 15.39 14.5623 16.1247 15.2877C16.8594 16.0131 17.2789 16.9987 17.2926 18.0311C15.5681 19.585 13.3292 20.445 11.0079 20.445C8.68658 20.445 6.44759 19.585 4.72316 18.0311Z" fill="#46B444"/>
</svg>
