<svg width="23" height="17" viewBox="0 0 23 17" fill="none" xmlns="http://www.w3.org/2000/svg">
<path d="M3.09411 0.761353H20.0376C21.636 0.761353 22.4416 1.51582 22.4416 3.05032V13.8174C22.4416 15.3391 21.636 16.1064 20.0376 16.1064H3.09411C1.49568 16.1064 0.690063 15.3391 0.690063 13.8174V3.05032C0.690063 1.51582 1.49568 0.761353 3.09411 0.761353ZM11.5594 11.7586L20.1782 4.68712C20.4851 4.43137 20.7281 3.84314 20.3445 3.31885C19.9736 2.79457 19.2959 2.78178 18.8483 3.10147L11.5594 8.03744L4.28335 3.10147C3.83579 2.78178 3.15805 2.79457 2.78721 3.31885C2.40359 3.84314 2.64655 4.43137 2.95345 4.68712L11.5594 11.7586Z" fill="#46B444"/>
</svg>
